<svg width="30" height="30" viewBox="0 0 30 30" fill="none" xmlns="http://www.w3.org/2000/svg">
<path d="M13.7425 26.1876C12.32 26.0376 11.0025 25.6389 9.79002 24.9914C8.57752 24.3447 7.52752 23.5201 6.64002 22.5176C5.75169 21.5159 5.05711 20.3684 4.55627 19.0751C4.05627 17.7818 3.80627 16.4209 3.80627 14.9926C3.80627 12.1009 4.75336 9.58844 6.64752 7.45511C8.54252 5.32344 10.9179 4.10427 13.7738 3.79761V5.04761C11.2688 5.40177 9.18961 6.51761 7.53627 8.39511C5.88211 10.2726 5.05502 12.4718 5.05502 14.9926C5.05502 17.5134 5.87794 19.7126 7.52377 21.5901C9.16961 23.4676 11.2425 24.5834 13.7425 24.9376V26.1876ZM14.9925 20.3851L9.60127 14.9851L10.4925 14.0939L14.3675 17.9689V9.61511H15.6175V17.9689L19.485 14.1014L20.3775 15.0001L14.9925 20.3851ZM16.2425 26.1876V24.9376C17.1384 24.8126 17.9979 24.5851 18.8213 24.2551C19.6446 23.9251 20.41 23.4809 21.1175 22.9226L22.065 23.8226C21.1984 24.4643 20.2746 24.9797 19.2938 25.3689C18.3129 25.758 17.295 26.0309 16.2425 26.1876ZM21.1813 7.11011C20.4513 6.56844 19.675 6.12052 18.8525 5.76636C18.03 5.41219 17.1704 5.17261 16.2738 5.04761V3.79761C17.3271 3.93927 18.34 4.20844 19.3125 4.60511C20.285 5.00177 21.2025 5.52136 22.065 6.16386L21.1813 7.11011ZM23.815 22.0101L22.93 21.1176C23.4717 20.4093 23.9092 19.6439 24.2425 18.8214C24.5759 17.9989 24.805 17.1393 24.93 16.2426H26.195C26.06 17.2959 25.7917 18.3143 25.39 19.2976C24.9875 20.2809 24.4625 21.1851 23.815 22.0101ZM24.93 13.7426C24.805 12.8468 24.5759 11.9876 24.2425 11.1651C23.9092 10.3426 23.4717 9.57677 22.93 8.86761L23.8625 7.92761C24.4784 8.78594 24.9817 9.70636 25.3725 10.6889C25.7642 11.6722 26.0384 12.6901 26.195 13.7426H24.93Z" fill="#050505"/>
</svg>
